<svg width="184" height="175" viewBox="0 0 184 175" fill="none" xmlns="http://www.w3.org/2000/svg">
<ellipse cx="92" cy="87.1774" rx="92" ry="87.1774" fill="#FBBC05"/>
<path d="M103.31 60.1828L89.0772 46.4926C87.0525 44.545 83.1847 43.8239 80.4274 46.6904C78 49.2152 78.2212 53.0973 80.5613 55.3472L94.7943 69.0373C97.243 71.3917 101.022 71.3582 103.447 68.8365C105.535 66.6647 106.025 62.7947 103.31 60.1828ZM89.6708 60.2518L82.4901 53.3437C81.3002 52.1995 81.0203 50.0844 82.4292 48.6216C84.0593 46.9256 86.1894 47.5687 87.1542 48.4969L94.0092 55.0832C94.0265 55.0832 94.0427 55.0842 94.0123 55.0842C90.9254 55.0832 89.1476 57.6094 89.6708 60.2518ZM92.3479 59.3378C92.3479 58.5222 93.0093 57.8619 93.8258 57.8619C94.6414 57.8619 95.3038 58.5222 95.3038 59.3378C95.3038 60.1534 94.6424 60.8158 93.8258 60.8158C93.0093 60.8158 92.3479 60.1544 92.3479 59.3378ZM101.443 66.9101C100.337 68.0604 98.1998 68.456 96.7207 67.0339L93.0719 63.5251C93.1896 63.5474 93.1358 63.5362 93.0749 63.5251C95.6099 63.9805 98.1956 62.184 98.0626 58.9918C98.0596 58.9309 98.0626 58.9624 98.0637 58.9928L101.381 62.1851C102.837 63.5839 102.644 65.6626 101.443 66.9101ZM115.642 82.1766H113.848V67.9052C113.848 65.0547 113.081 63.2097 112.008 62.1566L105.638 55.6929C109.24 46.8819 111.169 39.4373 111.512 32.1055C112.153 26.1359 103.553 27.6047 102.471 32.3307C101.123 32.6248 99.8706 33.4242 99.546 35.4133C98.0133 35.7461 97.077 36.6164 96.51 38.6157C94.0887 39.1453 93.9508 40.6354 93.8473 41.2988C93.8473 41.2988 93.0398 41.9622 93.0632 43.6775L83.6528 33.8473C82.8342 32.7883 83.9236 30.7929 84.7828 29.5332C86.3501 29.5332 87.3218 28.5025 87.765 27.0479C89.6173 26.8998 90.6023 25.9402 91.076 24.3872C92.9516 24.2371 93.9234 23.2481 94.3859 21.7265C96.4714 21.6322 97.4654 19.8743 97.4654 19.8743L92.9088 14C87.2425 14.6644 67.3514 20.0233 67.0035 38.8697C66.8685 46.1845 70.6886 51.6651 78.7328 59.5835L76.6168 89.3613L74.4298 89.2335L67.6923 151.882C66.8209 162.338 82.7204 164.238 85.4075 142.398L91.5579 90.2228L89.8577 90.1255C90.224 87.4354 91.1693 82.5765 93.4406 79.4177C93.9265 78.7411 94.8222 77.3626 95.7006 76.0063C97.7558 78.381 99.1079 80.4209 99.7491 82.1748H98.4973L100.235 141.645C100.235 160.996 117.373 163.967 117.373 152.156L115.642 82.1766ZM94.3939 21.7226C94.399 21.7185 94.401 21.7155 94.3939 21.7226ZM95.9155 43.1394C96.4379 42.3836 96.5941 41.8673 96.654 41.4555C98.1502 41.1268 98.9861 40.4553 99.5796 38.3707C101.142 38.0289 102.208 37.0885 102.501 35.2891C104.228 34.9127 105.158 33.8395 105.426 32.2064C106.871 30.5753 108.443 30.9678 108.618 31.0054C108.704 31.1058 109.461 39.1508 103.513 53.5328L95.649 46.1612C95.7312 45.652 95.8557 43.4245 95.9155 43.1394ZM82.6445 142.198C80.8226 158.305 69.6461 159.342 70.4667 152.076L76.912 92.1593L88.4535 92.8267L82.6445 142.198ZM91.1846 77.7965C88.525 81.498 87.4761 86.861 87.0754 89.965L79.3925 89.5186L81.3553 61.8391C82.8434 63.1203 93.2389 73.6606 93.6699 74.0281C92.6272 75.645 91.6441 77.1585 91.1846 77.7965ZM96.4899 72.7795C94.6661 71.2335 86.0671 62.234 80.3613 57.3182C72.9401 50.0066 69.4547 44.7805 69.7793 39.026C70.533 25.6352 83.02 18.641 91.7266 17.0078L93.3729 19.1279C92.5249 19.4758 91.8128 20.2589 91.4476 21.4518C89.9341 21.5725 88.6612 22.3912 88.1367 24.1125C86.5207 24.2424 85.416 24.9017 84.8501 26.7509C84.5387 26.7509 83.4888 26.6312 82.7148 27.6426C80.3706 30.9382 79.9477 33.5981 81.458 35.5486L109.589 63.5838C110.468 64.4623 111.069 66.0052 111.069 67.9042V82.1755H102.682C101.937 79.7958 100.095 76.3706 96.4899 72.7795ZM103.013 141.626L101.357 84.9559H112.928L114.593 152.177C114.584 160.284 103.013 156.424 103.013 141.628L103.013 141.626ZM78.6773 59.5357C78.6885 59.5458 78.7118 59.5661 78.725 59.5763C78.6986 59.555 78.6844 59.5407 78.6773 59.5357Z" fill="black"/>
</svg>
