<svg width="184" height="175" viewBox="0 0 184 175" fill="none" xmlns="http://www.w3.org/2000/svg">
<ellipse cx="92" cy="87.1774" rx="92" ry="87.1774" fill="#FBBC05"/>
<path d="M129.999 73.9996C129.999 53.0465 112.951 36 91.9996 36C71.0478 36 54 53.0478 54 73.9996C54 87.1727 60.676 99.1852 71.9121 106.188L71.942 136.589C71.942 137.423 72.3889 138.169 73.1343 138.556C73.8498 138.944 74.7434 138.884 75.4291 138.437L92 127.35L108.631 138.437C109.019 138.676 109.435 138.825 109.883 138.825C110.241 138.825 110.599 138.735 110.926 138.557C111.642 138.169 112.119 137.424 112.119 136.59L112.089 106.189C123.324 99.1842 130 87.1727 130 74.0004L129.999 73.9996ZM93.2508 122.819C92.8631 122.58 92.4462 122.431 91.9986 122.431C91.5518 122.431 91.1342 122.55 90.7465 122.819L76.4111 132.416L76.3812 108.602C86.3062 113.133 97.6907 113.133 107.616 108.602L107.645 132.416L93.2508 122.819ZM91.9986 107.529C73.52 107.529 58.469 92.4781 58.469 73.9994C58.469 55.5208 73.52 40.4698 91.9986 40.4698C110.477 40.4698 125.528 55.5208 125.528 73.9994C125.528 92.4781 110.477 107.529 91.9986 107.529Z" fill="black"/>
<path d="M110.479 65.8933L99.0941 64.2243L93.9972 53.9125C93.6394 53.197 92.8648 52.7202 92.0003 52.7202C91.1359 52.7202 90.3613 53.167 90.0035 53.9125L84.9066 64.2243L73.5215 65.8933C72.687 66.0123 71.9715 66.6088 71.7035 67.4133C71.4356 68.2179 71.6437 69.1123 72.2701 69.7081L80.4962 77.7253L78.5593 89.0505C78.4104 89.885 78.7681 90.7494 79.4537 91.2261C79.8414 91.524 80.3181 91.6437 80.7649 91.6437C81.1227 91.6437 81.4804 91.5546 81.8082 91.3758L91.9712 86.011L102.134 91.3459C102.88 91.7336 103.803 91.6737 104.489 91.167C105.174 90.6603 105.532 89.8258 105.383 88.9914L103.446 77.6663L111.672 69.649C112.298 69.0533 112.507 68.1888 112.239 67.3543C111.999 66.6088 111.314 66.0131 110.479 65.8933L110.479 65.8933ZM99.511 75.3413C98.9743 75.848 98.7363 76.5935 98.8553 77.3083L100.226 85.3255L93.0138 81.5407C92.3881 81.2129 91.5536 81.2129 90.9271 81.5407L83.7144 85.3255L85.0855 77.3083C85.2045 76.5928 84.9665 75.8481 84.4298 75.3413L78.5884 69.6488L86.6355 68.4865C87.351 68.3675 88.0066 67.9199 88.3045 67.2643L92.0002 59.9627L95.6061 67.2643C95.9339 67.9199 96.5596 68.3967 97.2751 68.4865L105.352 69.6488L99.511 75.3413Z" fill="black"/>
</svg>
