<svg width="184" height="175" viewBox="0 0 184 175" fill="none" xmlns="http://www.w3.org/2000/svg">
<ellipse cx="92" cy="87.1774" rx="92" ry="87.1774" fill="#FBBC05"/>
<path d="M45.1274 92.6597L46.999 94.3239V94.3232C48.0016 95.2111 48.7002 96.3922 48.9947 97.6987C49.2899 99.0045 49.1666 100.371 48.6421 101.603L47.6642 103.912H47.665C46.9519 105.602 46.999 107.516 47.7955 109.168C48.5914 110.82 50.059 112.05 51.8246 112.544L54.2374 113.231C55.5222 113.597 56.6597 114.357 57.4904 115.403C58.3203 116.45 58.8013 117.73 58.8658 119.065L58.9906 121.572C59.0675 123.208 59.7719 124.754 60.9566 125.886C62.1412 127.018 63.7161 127.652 65.355 127.655C65.712 127.64 66.0667 127.594 66.4156 127.52L68.8908 127.094C70.2075 126.867 71.562 127.06 72.7633 127.644C73.9654 128.228 74.9535 129.174 75.589 130.349L76.7852 132.553H76.7845C77.6536 134.176 79.1821 135.344 80.9753 135.757C82.7694 136.169 84.6542 135.787 86.1449 134.707L88.2247 133.251C89.31 132.471 90.6121 132.053 91.9477 132.053C93.284 132.053 94.5862 132.471 95.6715 133.251L97.7513 134.717C99.2327 135.803 101.11 136.197 102.903 135.798C104.695 135.4 106.229 134.247 107.111 132.637L108.317 130.432C108.954 129.294 109.925 128.379 111.099 127.81C112.272 127.241 113.592 127.045 114.88 127.25L117.355 127.687C117.729 127.755 118.109 127.79 118.489 127.791C120.121 127.787 121.69 127.16 122.873 126.036C124.057 124.912 124.766 123.378 124.853 121.748L124.999 119.2C125.069 117.865 125.557 116.586 126.393 115.543C127.229 114.501 128.371 113.746 129.658 113.387L132.081 112.71C133.841 112.215 135.304 110.988 136.1 109.341C136.896 107.695 136.947 105.787 136.241 104.099L135.274 101.78C134.754 100.545 134.635 99.1764 134.936 97.8699C135.236 96.5633 135.941 95.3844 136.949 94.5001L138.8 92.9092C140.171 91.697 140.956 89.9552 140.956 88.1248C140.956 86.2952 140.171 84.5528 138.8 83.3404L136.928 81.6763V81.677C135.925 80.789 135.227 79.6079 134.932 78.3014C134.637 76.9956 134.761 75.6288 135.284 74.3972L136.262 72.088C136.975 70.3984 136.927 68.484 136.132 66.8321C135.336 65.1803 133.868 63.9506 132.103 63.4558L129.69 62.7695C128.405 62.4032 127.268 61.6436 126.437 60.5969C125.607 59.5501 125.126 58.2697 125.061 56.9348L124.947 54.4284C124.87 52.7918 124.165 51.2465 122.981 50.1142C121.796 48.9818 120.221 48.3485 118.582 48.3449C118.246 48.3637 117.913 48.4087 117.584 48.4798L115.109 48.9064C114.765 48.9666 114.418 48.9978 114.069 48.9999C112.917 48.9999 111.788 48.6887 110.8 48.0989C109.811 47.5091 109 46.664 108.453 45.6512L107.215 43.4154C106.343 41.7955 104.815 40.6297 103.023 40.2176C101.23 39.8048 99.3463 40.1857 97.8549 41.2622L95.775 42.7182C94.6898 43.4973 93.3877 43.9159 92.052 43.9159C90.7158 43.9159 89.4136 43.4973 88.3283 42.7182L86.363 41.1998C84.8817 40.1146 83.0042 39.7199 81.2117 40.1189C79.4191 40.5172 77.8848 41.6692 77.0027 43.2798L75.8173 45.5366C75.176 46.7038 74.185 47.6411 72.9837 48.2179C71.7831 48.7939 70.4316 48.9804 69.1199 48.7504L66.6447 48.3035V48.3028C66.2703 48.2353 65.8909 48.2005 65.5108 48.1991C63.8785 48.202 62.3095 48.8302 61.1263 49.9539C59.9423 51.0776 59.2337 52.6119 59.1466 54.2413L59.0007 56.7999C58.9304 58.1347 58.4429 59.4137 57.6064 60.4568C56.7707 61.4993 55.6289 62.2537 54.3412 62.6135L51.9182 63.2896C50.1582 63.7851 48.6951 65.0118 47.8991 66.6587C47.1033 68.3047 47.0525 70.2134 47.7584 71.9008L48.7254 74.22C49.2456 75.4555 49.3645 76.8237 49.0635 78.1302C48.7631 79.4368 48.0587 80.6157 47.0511 81.5L45.1997 83.0909C43.8192 84.293 43.0213 86.0289 43.0074 87.8586C42.9929 89.6889 43.7647 91.4366 45.1271 92.6597L45.1274 92.6597ZM72.3754 82.9047V82.904C72.3725 82.3897 72.577 81.8956 72.9434 81.5329C73.309 81.1709 73.8052 80.9721 74.3203 80.9801H81.2571L90.0139 62.3845C90.2352 61.4625 90.8903 60.7051 91.7709 60.3532C92.6509 60.0014 93.6476 60.0986 94.4443 60.6136C95.2401 61.1294 95.7363 61.9985 95.7755 62.9466L93.6957 78.1722L111.864 78.1714C112.857 78.1569 113.817 78.5262 114.544 79.2023C115.271 79.8791 115.708 80.8099 115.765 81.8016C115.795 82.8143 115.415 83.7958 114.709 84.5227C114.004 85.2503 113.033 85.6602 112.02 85.6594H110.98C111.611 86.0185 112.123 86.5524 112.455 87.1966C112.787 87.8408 112.925 88.5677 112.853 89.2896C112.737 90.2247 112.281 91.0851 111.571 91.7047C110.86 92.3249 109.947 92.6608 109.004 92.6485H108.12H108.12C108.763 93.0061 109.286 93.5444 109.625 94.1973C109.963 94.8502 110.102 95.5887 110.023 96.32C109.909 97.2551 109.452 98.1155 108.742 98.735C108.032 99.3553 107.118 99.6912 106.176 99.6788H105.291C105.922 100.037 106.435 100.57 106.768 101.215C107.101 101.86 107.238 102.587 107.164 103.309C107.048 104.244 106.592 105.104 105.882 105.724C105.172 106.344 104.258 106.68 103.316 106.668L74.3204 106.928C73.2635 106.928 72.4066 106.071 72.4066 105.014L72.3754 82.9047Z" fill="black"/>
</svg>
