<svg width="45" height="25" viewBox="0 0 45 25" fill="none" xmlns="http://www.w3.org/2000/svg">
<path d="M19.4886 1.22727V24.5H15.2386L5.11364 9.85227H4.94318V24.5H0.0227273V1.22727H4.34091L14.3864 15.8636H14.5909V1.22727H19.4886ZM44.0881 9.375H39.1108C39.0199 8.73106 38.8343 8.15909 38.554 7.65909C38.2737 7.15151 37.9138 6.7197 37.4744 6.36364C37.035 6.00757 36.5275 5.73485 35.9517 5.54545C35.3835 5.35606 34.7661 5.26136 34.0994 5.26136C32.8949 5.26136 31.8456 5.56061 30.9517 6.15909C30.0578 6.75 29.3646 7.61364 28.8722 8.75C28.3797 9.87879 28.1335 11.25 28.1335 12.8636C28.1335 14.5227 28.3797 15.9167 28.8722 17.0455C29.3722 18.1742 30.0691 19.0265 30.9631 19.6023C31.857 20.178 32.8911 20.4659 34.0653 20.4659C34.7244 20.4659 35.3343 20.3788 35.8949 20.2045C36.4631 20.0303 36.9669 19.7765 37.4062 19.4432C37.8456 19.1023 38.2093 18.6894 38.4972 18.2045C38.7926 17.7197 38.9972 17.1667 39.1108 16.5455L44.0881 16.5682C43.9593 17.6364 43.6373 18.6667 43.1222 19.6591C42.6146 20.6439 41.929 21.5265 41.0653 22.3068C40.2093 23.0795 39.1866 23.6932 37.9972 24.1477C36.8153 24.5947 35.4782 24.8182 33.9858 24.8182C31.91 24.8182 30.054 24.3485 28.4176 23.4091C26.7888 22.4697 25.5009 21.1098 24.554 19.3295C23.6146 17.5492 23.1449 15.3939 23.1449 12.8636C23.1449 10.3258 23.6222 8.16667 24.5767 6.38636C25.5313 4.60606 26.8267 3.25 28.4631 2.31818C30.0994 1.37879 31.9403 0.90909 33.9858 0.90909C35.3343 0.90909 36.5843 1.09848 37.7358 1.47727C38.8949 1.85606 39.9214 2.40909 40.8153 3.13636C41.7093 3.85606 42.4366 4.73864 42.9972 5.78409C43.5653 6.82954 43.929 8.02651 44.0881 9.375Z" fill="#27282A"/>
</svg>
