<svg width="25" height="25" viewBox="0 0 25 25" fill="none" xmlns="http://www.w3.org/2000/svg">
<path fill-rule="evenodd" clip-rule="evenodd" d="M21.5002 5H3.50024C3.10242 5 2.72089 5.15804 2.43958 5.43934C2.15828 5.72064 2.00024 6.10218 2.00024 6.5V6.82525L12.5002 13.1255L23.0002 6.82518V6.5C23.0002 6.10218 22.8422 5.72064 22.5609 5.43934C22.2796 5.15804 21.8981 5 21.5002 5ZM0.500244 7.27068C0.499919 7.25793 0.499919 7.24517 0.500244 7.23241V6.5C0.500244 5.70435 0.816315 4.94129 1.37892 4.37868C1.94153 3.81607 2.70459 3.5 3.50024 3.5H21.5002C22.2959 3.5 23.059 3.81607 23.6216 4.37868C24.1842 4.94129 24.5002 5.70435 24.5002 6.5V7.2394V7.2606V18.5C24.5002 19.2956 24.1842 20.0587 23.6216 20.6213C23.059 21.1839 22.2959 21.5 21.5002 21.5H3.50024C2.70459 21.5 1.94153 21.1839 1.37892 20.6213C0.816315 20.0587 0.500244 19.2956 0.500244 18.5V7.27068ZM23.0002 17.194V8.57474L15.7162 12.945L23.0002 17.194ZM22.9461 18.8995L14.3722 13.898L14.2482 13.8257L12.5002 14.8745L10.7519 13.8258L10.6282 13.898L2.05439 18.8994C2.12287 19.1473 2.25456 19.3756 2.43958 19.5607C2.72089 19.842 3.10242 20 3.50024 20H21.5002C21.8981 20 22.2796 19.842 22.5609 19.5607C22.7459 19.3757 22.8776 19.1473 22.9461 18.8995ZM2.00024 17.194V8.57616L9.28386 12.9452L2.00024 17.194Z" fill="#3C7EFF"/>
</svg>
