<svg width="25" height="25" viewBox="0 0 25 25" fill="none" xmlns="http://www.w3.org/2000/svg">
<path fill-rule="evenodd" clip-rule="evenodd" d="M17 2H8C7.60218 2 7.22064 2.15804 6.93934 2.43934C6.65804 2.72064 6.5 3.10218 6.5 3.5V21.5C6.5 21.8978 6.65804 22.2794 6.93934 22.5607C7.22064 22.842 7.60218 23 8 23H17C17.3978 23 17.7794 22.842 18.0607 22.5607C18.342 22.2794 18.5 21.8978 18.5 21.5V3.5C18.5 3.10218 18.342 2.72064 18.0607 2.43934C17.7794 2.15804 17.3978 2 17 2ZM8 0.5C7.20435 0.5 6.44129 0.816071 5.87868 1.37868C5.31607 1.94129 5 2.70435 5 3.5V21.5C5 22.2956 5.31607 23.0587 5.87868 23.6213C6.44129 24.1839 7.20435 24.5 8 24.5H17C17.7956 24.5 18.5587 24.1839 19.1213 23.6213C19.6839 23.0587 20 22.2956 20 21.5V3.5C20 2.70435 19.6839 1.94129 19.1213 1.37868C18.5587 0.816071 17.7956 0.5 17 0.5H8Z" fill="#3C7EFF"/>
<path fill-rule="evenodd" clip-rule="evenodd" d="M12.5 21.5C12.8978 21.5 13.2794 21.342 13.5607 21.0607C13.842 20.7794 14 20.3978 14 20C14 19.6022 13.842 19.2206 13.5607 18.9393C13.2794 18.658 12.8978 18.5 12.5 18.5C12.1022 18.5 11.7206 18.658 11.4393 18.9393C11.158 19.2206 11 19.6022 11 20C11 20.3978 11.158 20.7794 11.4393 21.0607C11.7206 21.342 12.1022 21.5 12.5 21.5Z" fill="#3C7EFF"/>
</svg>
