<svg width="50" height="50" viewBox="0 0 50 50" fill="none" xmlns="http://www.w3.org/2000/svg">
<mask id="mask0_132_67" style="mask-type:alpha" maskUnits="userSpaceOnUse" x="0" y="0" width="50" height="50">
<path fill-rule="evenodd" clip-rule="evenodd" d="M11.3667 0.0246582C10.2516 0.0642929 8.81448 0.151531 8.16127 0.283371C7.16417 0.484726 6.22255 0.790012 5.43948 1.18913C4.51943 1.65801 3.69484 2.25625 2.98282 2.96715C2.26917 3.67943 1.66854 4.50479 1.19777 5.42621C0.799767 6.20509 0.494654 7.14098 0.292443 8.13242C0.15795 8.79222 0.0690015 10.2401 0.0286793 11.3623C0.0123278 11.821 0.00393805 12.4146 0.00393805 12.6884L0 37.3077C0 37.5804 0.00830416 38.1742 0.02457 38.6334C0.0642074 39.7484 0.151444 41.1855 0.283369 41.8387C0.484637 42.8357 0.790008 43.7774 1.18904 44.5605C1.65801 45.4807 2.25616 46.3051 2.96707 47.0172C3.67934 47.7307 4.50479 48.3314 5.42612 48.8022C6.20509 49.2001 7.14097 49.5053 8.13234 49.7076C8.79213 49.842 10.2401 49.931 11.3623 49.9712C11.8208 49.9877 12.4145 49.9961 12.6883 49.9961L37.3077 50C37.5804 50 38.1742 49.9918 38.6332 49.9754C39.7483 49.9357 41.1855 49.8486 41.8386 49.7166C42.8357 49.5153 43.7775 49.2099 44.5604 48.811C45.4805 48.342 46.3051 47.7438 47.0171 47.0329C47.7307 46.3206 48.3313 45.4953 48.8021 44.5739C49.2001 43.7949 49.5053 42.8591 49.7075 41.8677C49.842 41.2079 49.9309 39.7599 49.9712 38.6377C49.9877 38.1791 49.996 37.5855 49.996 37.3117L50 12.6923C50 12.4196 49.9917 11.8258 49.9753 11.3667C49.9356 10.2517 49.8485 8.81456 49.7165 8.16136C49.5153 7.16426 49.2099 6.22264 48.8109 5.43957C48.342 4.51943 47.7437 3.69492 47.0329 2.98282C46.3206 2.26935 45.4951 1.66862 44.5738 1.19786C43.7948 0.799858 42.859 0.494656 41.8676 0.292534C41.2078 0.158039 39.7599 0.0690918 38.6377 0.0288544C38.179 0.0123329 37.5854 0.00402832 37.3116 0.00402832L12.6923 8.7738e-05C12.4195 8.7738e-05 11.8257 0.0083046 11.3667 0.0246582Z" fill="white"/>
</mask>
<g mask="url(#mask0_132_67)">
<path d="M11.3667 0.0246582C10.2516 0.0642929 8.81448 0.151531 8.16127 0.283371C7.16417 0.484726 6.22255 0.790012 5.43948 1.18913C4.51943 1.65801 3.69484 2.25625 2.98282 2.96715C2.26917 3.67943 1.66854 4.50479 1.19777 5.42621C0.799767 6.20509 0.494654 7.14098 0.292443 8.13242C0.15795 8.79222 0.0690015 10.2401 0.0286793 11.3623C0.0123278 11.821 0.00393805 12.4146 0.00393805 12.6884L0 37.3077C0 37.5804 0.00830416 38.1742 0.02457 38.6334C0.0642074 39.7484 0.151444 41.1855 0.283369 41.8387C0.484637 42.8357 0.790008 43.7774 1.18904 44.5605C1.65801 45.4807 2.25616 46.3051 2.96707 47.0172C3.67934 47.7307 4.50479 48.3314 5.42612 48.8022C6.20509 49.2001 7.14097 49.5053 8.13234 49.7076C8.79213 49.842 10.2401 49.931 11.3623 49.9712C11.8208 49.9877 12.4145 49.9961 12.6883 49.9961L37.3077 50C37.5804 50 38.1742 49.9918 38.6332 49.9754C39.7483 49.9357 41.1855 49.8486 41.8386 49.7166C42.8357 49.5153 43.7775 49.2099 44.5604 48.811C45.4805 48.342 46.3051 47.7438 47.0171 47.0329C47.7307 46.3206 48.3313 45.4953 48.8021 44.5739C49.2001 43.7949 49.5053 42.8591 49.7075 41.8677C49.842 41.2079 49.9309 39.7599 49.9712 38.6377C49.9877 38.1791 49.996 37.5855 49.996 37.3117L50 12.6923C50 12.4196 49.9917 11.8258 49.9753 11.3667C49.9356 10.2517 49.8485 8.81456 49.7165 8.16136C49.5153 7.16426 49.2099 6.22264 48.8109 5.43957C48.342 4.51943 47.7437 3.69492 47.0329 2.98282C46.3206 2.26935 45.4951 1.66862 44.5738 1.19786C43.7948 0.799858 42.859 0.494656 41.8676 0.292534C41.2078 0.158039 39.7599 0.0690918 38.6377 0.0288544C38.179 0.0123329 37.5854 0.00402832 37.3116 0.00402832L12.6923 8.7738e-05C12.4195 8.7738e-05 11.8257 0.0083046 11.3667 0.0246582Z" fill="url(#paint0_linear_132_67)"/>
<path fill-rule="evenodd" clip-rule="evenodd" d="M33.6674 28.2907C33.222 28.0679 31.0326 26.9908 30.6243 26.8423C30.2161 26.6937 29.9193 26.6194 29.6224 27.0651C29.3255 27.5108 28.4721 28.5135 28.2122 28.8107C27.9525 29.1078 27.6928 29.145 27.2474 28.9221C26.8021 28.6993 25.3672 28.2291 23.6662 26.7124C22.3423 25.532 21.4485 24.074 21.1887 23.6283C20.929 23.1826 21.1611 22.9417 21.3841 22.7197C21.5843 22.5203 21.8293 22.1998 22.052 21.9398C22.2747 21.6798 22.3489 21.4941 22.4973 21.1971C22.6458 20.8999 22.5716 20.6399 22.4602 20.4171C22.3489 20.1942 21.4583 18.003 21.0872 17.1116C20.7257 16.2435 20.3586 16.361 20.0852 16.3474C19.8257 16.3344 19.5286 16.3317 19.2317 16.3317C18.9348 16.3317 18.4524 16.4432 18.0441 16.8888C17.6359 17.3344 16.4855 18.4116 16.4855 20.6028C16.4855 22.794 18.0812 24.911 18.3039 25.2081C18.5266 25.5053 21.4442 30.002 25.9115 31.9304C26.974 32.3891 27.8035 32.663 28.4502 32.8683C29.5171 33.207 30.4879 33.1592 31.2552 33.0446C32.1108 32.9168 33.89 31.9676 34.2612 30.9277C34.6322 29.8877 34.6322 28.9964 34.5209 28.8107C34.4096 28.625 34.1127 28.5135 33.6674 28.2907ZM25.5417 39.3818H25.5357C22.8775 39.3808 20.2704 38.667 17.996 37.3177L17.455 36.9966L11.8483 38.467L13.3449 33.0022L12.9926 32.442C11.5098 30.0841 10.7266 27.3589 10.7277 24.5608C10.731 16.3956 17.3764 9.75275 25.5476 9.75275C29.5043 9.75429 33.2237 11.2967 36.0206 14.0958C38.8175 16.895 40.3569 20.6158 40.3554 24.5728C40.3521 32.7385 33.7067 39.3818 25.5417 39.3818ZM38.1493 11.9688C34.7843 8.60104 30.3093 6.74545 25.5415 6.74356C15.7178 6.74356 7.72245 14.7358 7.71851 24.5597C7.71723 27.6999 8.53789 30.7653 10.0975 33.4671L7.56904 42.7L17.0173 40.2224C19.6205 41.6418 22.5514 42.3898 25.5344 42.3911H25.5417H25.5418C35.3646 42.3911 43.3606 34.3978 43.3647 24.5739C43.3665 19.8131 41.5144 15.3366 38.1493 11.9688Z" fill="white"/>
</g>
<defs>
<linearGradient id="paint0_linear_132_67" x1="-5.36442e-05" y1="50" x2="-5.36442e-05" y2="3.02898e-05" gradientUnits="userSpaceOnUse">
<stop stop-color="#25CF43"/>
<stop offset="1" stop-color="#61FD7D"/>
</linearGradient>
</defs>
</svg>
